<?xml version="1.0" encoding="utf-8"?>
<!-- Generator: Adobe Illustrator 18.0.0, SVG Export Plug-In . SVG Version: 6.00 Build 0)  -->
<!DOCTYPE svg PUBLIC "-//W3C//DTD SVG 1.1//EN" "http://www.w3.org/Graphics/SVG/1.1/DTD/svg11.dtd">
<svg version="1.1" xmlns="http://www.w3.org/2000/svg" xmlns:xlink="http://www.w3.org/1999/xlink" x="0px" y="0px"
	 viewBox="0 0 22 40" enable-background="new 0 0 22 40" xml:space="preserve">
<g id="Layer_2">
	<circle fill="#FFFFFF" cx="11" cy="10.6" r="9.4"/>
	<path fill="#F78E1E" d="M11,0C4.9,0,0,5,0,11.2c0,2.5,0.8,4.9,2.3,6.9c0,0,7.1,11,7.8,20.5c0,0,0,1.4,0.9,1.4s0.9-1.4,0.9-1.4
		c0.8-9.5,7.8-20.5,7.8-20.5c3.7-4.9,2.8-12-2.1-15.8C15.8,0.8,13.4,0,11,0z M11,16.7c-3.1,0-5.6-2.6-5.6-5.7S7.9,5.3,11,5.3
		s5.6,2.6,5.6,5.7S14.1,16.7,11,16.7z"/>
	<circle fill="#F78E1E" cx="11" cy="11" r="11"/>
	<path fill="#F78E1E" d="M12.1,14.4L12.1,14.4z"/>
	<path fill="#F78E1E" d="M11.4,17.2L11.4,17.2z"/>
	<path fill="#F78E1E" d="M15.2,17.2L15.2,17.2z"/>
	<path fill="#F78E1E" d="M16.1,13.7L16.1,13.7z"/>
	<path fill="#F78E1E" d="M7.8,17.2L7.8,17.2z"/>
	<path fill="#F78E1E" d="M8.7,13.7L8.7,13.7z"/>
	<ellipse fill="#FFFFFF" cx="11" cy="11.2" rx="9.4" ry="9.6"/>
</g>
<g id="Layer_3">
	<path fill="#008537" d="M6.8,7.9C6.6,8.1,6.5,8.4,6.5,8.7v8.5c0,0.2,0.2,0.5,0.5,0.5h4.2c0.2,0,0.5-0.2,0.5-0.5v-2.9
		c0-0.2,0.2-0.5,0.5-0.5h1.1c0.2,0,0.5,0.2,0.5,0.5v2.9c0,0.2,0.2,0.5,0.5,0.5h0.6c0.2,0,0.5-0.2,0.5-0.5V8.6c0-0.3-0.1-0.6-0.3-0.8
		l-3.5-3c-0.3-0.3-0.9-0.3-1.2,0L6.8,7.9z M8,10.9c0-0.2,0.2-0.5,0.5-0.5h1.1c0.2,0,0.5,0.2,0.5,0.5V12c0,0.2-0.2,0.5-0.5,0.5H8.5
		C8.3,12.5,8,12.3,8,12V10.9z M10,15.5c0,0.2-0.2,0.5-0.5,0.5h-1C8.3,16,8,15.8,8,15.5v-1.2c0-0.2,0.2-0.5,0.5-0.5h1.1
		c0.2,0,0.5,0.2,0.5,0.5v1.2H10z M10.8,9.3c-0.8,0-1.5-0.7-1.5-1.5s0.7-1.5,1.5-1.5s1.5,0.7,1.5,1.5l0,0C12.3,8.6,11.6,9.3,10.8,9.3
		z M13.6,12c0,0.2-0.2,0.5-0.5,0.5H12c-0.2,0-0.5-0.2-0.5-0.5v-1.1c0-0.2,0.2-0.5,0.5-0.5h1.1c0.2,0,0.5,0.2,0.5,0.5V12z"/>
	<path fill="#F78E1E" d="M10.8,6.3C10.8,6.2,10.8,6.2,10.8,6.3C10.9,6.2,10.9,6.2,10.8,6.3c0.1,0,0.2,0.8,0.2,1.2c0.3,0,0.7,0,0.7,0
		l0,0l0,0c-0.1,0-0.8,0.2-0.9,0.2l0,0c-0.1,0-0.2-0.1-0.2-0.2l0,0L10.8,6.3z"/>
</g>
</svg>
