<?xml version="1.0" encoding="utf-8"?>
<!-- Generator: Adobe Illustrator 18.0.0, SVG Export Plug-In . SVG Version: 6.00 Build 0)  -->
<!DOCTYPE svg PUBLIC "-//W3C//DTD SVG 1.1//EN" "http://www.w3.org/Graphics/SVG/1.1/DTD/svg11.dtd">
<svg version="1.1" xmlns="http://www.w3.org/2000/svg" xmlns:xlink="http://www.w3.org/1999/xlink" x="0px" y="0px"
	 viewBox="0 0 22 40" enable-background="new 0 0 22 40" xml:space="preserve">
<g id="Layer_1">
	<circle fill="#FFFFFF" cx="11" cy="10.6" r="9.4"/>
	<path fill="#F78E1E" d="M11,0C4.9,0,0,5,0,11.2c0,2.5,0.8,4.9,2.3,6.9c0,0,7.1,11,7.8,20.5c0,0,0,1.4,0.9,1.4s0.9-1.4,0.9-1.4
		c0.8-9.5,7.8-20.5,7.8-20.5c3.7-4.9,2.8-12-2.1-15.8C15.8,0.8,13.4,0,11,0z M11,16.7c-3.1,0-5.6-2.6-5.6-5.7S7.9,5.3,11,5.3
		s5.6,2.6,5.6,5.7S14.1,16.7,11,16.7z"/>
	<circle fill="#F78E1E" cx="11" cy="11" r="11"/>
	<path fill="#FFFFFF" d="M18.4,10.5l-6.8-6c-0.3-0.3-0.8-0.3-1.2,0l-6.8,6c-0.2,0.3-0.1,0.6,0.3,0.7h1v6.2c0,0.3,0.3,0.5,0.6,0.5h11
		c0.3,0,0.5-0.2,0.6-0.5l0,0v-6.2h1C18.5,11,18.6,10.7,18.4,10.5z M14.7,8.7c0.4,0,0.7,0.3,0.7,0.7s-0.3,0.7-0.7,0.7S14,9.8,14,9.4
		l0,0C13.9,9.1,14.3,8.7,14.7,8.7z M11,10.3c0.3,0,0.6,0.3,0.6,0.6s-0.3,0.6-0.6,0.6s-0.6-0.3-0.6-0.6S10.7,10.3,11,10.3L11,10.3z
		 M7.3,8.7C7.7,8.7,8,9.1,8,9.5s-0.3,0.7-0.7,0.7c-0.4,0-0.7-0.3-0.7-0.7l0,0C6.6,9.1,6.9,8.7,7.3,8.7z M9,13.4
		c0,0.2-0.2,0.3-0.3,0.3l0,0c-0.2,0-0.3-0.1-0.3-0.3v-1.9c0,0,0-0.1-0.1-0.1l0,0c0,0-0.1,0-0.1,0.1v5.3c0,0.2-0.2,0.4-0.4,0.4l0,0
		c-0.2,0-0.4-0.2-0.4-0.4v-3.1c0,0,0-0.1-0.1-0.1c0,0-0.1,0-0.1,0.1v3.1c0,0.2-0.2,0.4-0.4,0.4l0,0l0,0c-0.2,0-0.4-0.2-0.4-0.4v-5.3
		c0,0,0-0.1-0.1-0.1c0,0-0.1,0-0.1,0.1v2c0,0.2-0.1,0.3-0.3,0.3h0c-0.2,0-0.3-0.1-0.3-0.3v-2.2c0-0.5,0.4-0.9,0.9-0.9l0,0h1.6
		c0.5,0,0.9,0.4,0.9,0.9l0,0V13.4z M12.4,14.1c0,0.1-0.1,0.2-0.3,0.3l0,0c-0.1,0-0.2-0.1-0.2-0.3v-1.6c0,0,0-0.1-0.1-0.1l0,0
		c0,0-0.1,0-0.1,0.1v4.3c0,0.2-0.2,0.3-0.3,0.3l0,0c-0.2,0-0.3-0.1-0.3-0.3v-2.5c0,0,0-0.1-0.1-0.1s-0.1,0-0.1,0.1v2.5
		c0,0.2-0.1,0.3-0.3,0.3l0,0c-0.2,0-0.3-0.1-0.3-0.3v-4.3c0,0,0-0.1-0.1-0.1s-0.1,0-0.1,0.1v1.6c0,0.1-0.1,0.3-0.2,0.3h0
		c-0.1,0-0.3-0.1-0.3-0.3v-1.7c0-0.4,0.3-0.7,0.7-0.7l0,0h1.3c0.4,0,0.7,0.3,0.7,0.7l0,0L12.4,14.1z M16.4,13.4
		c0,0.2-0.2,0.3-0.3,0.3l0,0c-0.2,0-0.3-0.1-0.3-0.3v-1.9c0,0,0-0.1-0.1-0.1l0,0c0,0-0.1,0-0.1,0.1v5.3c0,0.2-0.2,0.4-0.4,0.4l0,0
		c-0.2,0-0.4-0.2-0.4-0.4v-3.1c0,0,0-0.1-0.1-0.1c0,0-0.1,0-0.1,0.1l0,0v3.1c0,0.2-0.2,0.4-0.4,0.4l0,0l0,0c-0.2,0-0.4-0.2-0.4-0.4
		v-5.3c0,0,0-0.1-0.1-0.1c0,0-0.1,0-0.1,0.1v2c0,0.2-0.1,0.3-0.3,0.3h-0.1c-0.2,0-0.3-0.1-0.3-0.3v-2.2c0-0.5,0.4-0.9,0.9-0.9l0,0
		h1.6c0.5,0,0.9,0.4,0.9,0.9l0,0L16.4,13.4z"/>
	<path fill="#F78E1E" d="M12.1,14.4L12.1,14.4z"/>
	<path fill="#F78E1E" d="M11.4,17.2L11.4,17.2z"/>
	<path fill="#F78E1E" d="M15.2,17.2L15.2,17.2z"/>
	<path fill="#F78E1E" d="M16.1,13.7L16.1,13.7z"/>
	<path fill="#F78E1E" d="M7.8,17.2L7.8,17.2z"/>
	<path fill="#F78E1E" d="M8.7,13.7L8.7,13.7z"/>
</g>
<g id="Layer_2">
	<ellipse fill="#FFFFFF" cx="11" cy="11.3" rx="9.4" ry="9.6"/>
	<g id="Layer_3">
		<path fill="#F78E1E" d="M18.4,9.8l-6.8-6c-0.3-0.3-0.8-0.3-1.2,0l-6.8,6c-0.2,0.3-0.1,0.6,0.3,0.7h1v6.2c0,0.3,0.3,0.5,0.6,0.5h11
			c0.3,0,0.5-0.2,0.6-0.5l0,0v-6.2h1C18.5,10.3,18.6,10,18.4,9.8z M14.7,8c0.4,0,0.7,0.3,0.7,0.7s-0.3,0.7-0.7,0.7S14,9.1,14,8.7
			l0,0C13.9,8.4,14.3,8,14.7,8z M11,9.6c0.3,0,0.6,0.3,0.6,0.6s-0.3,0.6-0.6,0.6s-0.6-0.3-0.6-0.6S10.7,9.6,11,9.6L11,9.6z M7.3,8
			C7.7,8,8,8.4,8,8.8S7.7,9.5,7.3,9.5c-0.4,0-0.7-0.3-0.7-0.7l0,0C6.6,8.4,6.9,8,7.3,8z M9,12.7C9,12.9,8.8,13,8.7,13l0,0
			c-0.2,0-0.3-0.1-0.3-0.3v-1.9c0,0,0-0.1-0.1-0.1l0,0c0,0-0.1,0-0.1,0.1v5.3c0,0.2-0.2,0.4-0.4,0.4l0,0c-0.2,0-0.4-0.2-0.4-0.4V13
			c0,0,0-0.1-0.1-0.1c0,0-0.1,0-0.1,0.1v3.1c0,0.2-0.2,0.4-0.4,0.4l0,0l0,0c-0.2,0-0.4-0.2-0.4-0.4v-5.3c0,0,0-0.1-0.1-0.1
			c0,0-0.1,0-0.1,0.1v2c0,0.2-0.1,0.3-0.3,0.3h0c-0.2,0-0.3-0.1-0.3-0.3v-2.2c0-0.5,0.4-0.9,0.9-0.9l0,0h1.6c0.5,0,0.9,0.4,0.9,0.9
			l0,0V12.7z M12.4,13.4c0,0.1-0.1,0.2-0.3,0.3l0,0c-0.1,0-0.2-0.1-0.2-0.3v-1.6c0,0,0-0.1-0.1-0.1l0,0c0,0-0.1,0-0.1,0.1v4.3
			c0,0.2-0.2,0.3-0.3,0.3l0,0c-0.2,0-0.3-0.1-0.3-0.3v-2.5c0,0,0-0.1-0.1-0.1s-0.1,0-0.1,0.1v2.5c0,0.2-0.1,0.3-0.3,0.3l0,0
			c-0.2,0-0.3-0.1-0.3-0.3v-4.3c0,0,0-0.1-0.1-0.1s-0.1,0-0.1,0.1v1.6c0,0.1-0.1,0.3-0.2,0.3h0c-0.1,0-0.3-0.1-0.3-0.3v-1.7
			c0-0.4,0.3-0.7,0.7-0.7l0,0h1.3c0.4,0,0.7,0.3,0.7,0.7l0,0L12.4,13.4z M16.4,12.7c0,0.2-0.2,0.3-0.3,0.3l0,0
			c-0.2,0-0.3-0.1-0.3-0.3v-1.9c0,0,0-0.1-0.1-0.1l0,0c0,0-0.1,0-0.1,0.1v5.3c0,0.2-0.2,0.4-0.4,0.4l0,0c-0.2,0-0.4-0.2-0.4-0.4V13
			c0,0,0-0.1-0.1-0.1c0,0-0.1,0-0.1,0.1l0,0v3.1c0,0.2-0.2,0.4-0.4,0.4l0,0l0,0c-0.2,0-0.4-0.2-0.4-0.4v-5.3c0,0,0-0.1-0.1-0.1
			c0,0-0.1,0-0.1,0.1v2c0,0.2-0.1,0.3-0.3,0.3h-0.1c-0.2,0-0.3-0.1-0.3-0.3v-2.2c0-0.5,0.4-0.9,0.9-0.9l0,0h1.6
			c0.5,0,0.9,0.4,0.9,0.9l0,0L16.4,12.7z"/>
	</g>
</g>
</svg>
