<?xml version="1.0" encoding="utf-8"?>
<!-- Generator: Adobe Illustrator 18.0.0, SVG Export Plug-In . SVG Version: 6.00 Build 0)  -->
<!DOCTYPE svg PUBLIC "-//W3C//DTD SVG 1.1//EN" "http://www.w3.org/Graphics/SVG/1.1/DTD/svg11.dtd">
<svg version="1.1" id="Layer_2" xmlns="http://www.w3.org/2000/svg" xmlns:xlink="http://www.w3.org/1999/xlink" x="0px" y="0px"
	 viewBox="0 0 22 40" enable-background="new 0 0 22 40" xml:space="preserve">
<circle fill="#FFFFFF" cx="11" cy="10.6" r="9.4"/>
<path fill="#8B0E04" d="M10.9,0c-6.1,0-11,5-11,11.2c0,2.5,0.8,4.9,2.3,6.9c0,0,7.1,11,7.8,20.5c0,0,0,1.4,0.9,1.4s0.9-1.4,0.9-1.4
	c0.8-9.5,7.8-20.5,7.8-20.5c3.7-4.9,2.8-12-2.1-15.8C15.7,0.8,13.3,0,10.9,0z M10.9,16.7c-3.1,0-5.6-2.6-5.6-5.7s2.5-5.7,5.6-5.7
	s5.6,2.6,5.6,5.7S14,16.7,10.9,16.7z"/>
<circle fill="#8B0E04" cx="11" cy="11" r="11"/>
<path fill="#005984" d="M12.1,14.4L12.1,14.4z"/>
<path fill="#005984" d="M11.4,17.2L11.4,17.2z"/>
<path fill="#005984" d="M15.2,17.2L15.2,17.2z"/>
<path fill="#005984" d="M16.1,13.7L16.1,13.7z"/>
<path fill="#005984" d="M7.8,17.2L7.8,17.2z"/>
<path fill="#005984" d="M8.7,13.7L8.7,13.7z"/>
<ellipse fill="#FFFFFF" cx="11" cy="11.2" rx="9.4" ry="9.6"/>
<path fill="#8B0E04" d="M16.1,16.3c-1.3-2-2-4.4-2-6.8c0-1.4,0.2-2.8,0.6-4.1c0.1-0.4-0.1-0.8-0.5-1c-0.1,0-0.2,0-0.3,0H8.2
	c-0.4,0-0.8,0.3-0.8,0.8c0,0.1,0,0.2,0,0.3c0.5,1.3,0.7,2.7,0.7,4c0,2.4-0.7,4.8-2,6.8c-0.2,0.4-0.1,0.8,0.2,1.1
	c0.1,0.1,0.3,0.1,0.4,0.1h8.6c0.4,0,0.8-0.4,0.8-0.8C16.2,16.6,16.1,16.5,16.1,16.3z"/>
</svg>
